<?xml version="1.0" encoding="UTF-8" standalone="no"?>
<!-- Created with Inkscape (http://www.inkscape.org/) -->

<svg
   xmlns:dc="http://purl.org/dc/elements/1.1/"
   xmlns:cc="http://creativecommons.org/ns#"
   xmlns:rdf="http://www.w3.org/1999/02/22-rdf-syntax-ns#"
   xmlns:svg="http://www.w3.org/2000/svg"
   xmlns="http://www.w3.org/2000/svg"
   xmlns:sodipodi="http://sodipodi.sourceforge.net/DTD/sodipodi-0.dtd"
   xmlns:inkscape="http://www.inkscape.org/namespaces/inkscape"
   width="385.44986mm"
   height="37.04166mm"
   viewBox="0 0 385.44986 37.04166"
   version="1.1"
   id="svg844"
   inkscape:version="0.92.4 (5da689c313, 2019-01-14)"
   sodipodi:docname="contact_divider.svg">
  <defs
     id="defs838" />
  <sodipodi:namedview
     id="base"
     pagecolor="#ffffff"
     bordercolor="#666666"
     borderopacity="1.0"
     inkscape:pageopacity="0.0"
     inkscape:pageshadow="2"
     inkscape:zoom="0.7"
     inkscape:cx="584.94635"
     inkscape:cy="31.775785"
     inkscape:document-units="mm"
     inkscape:current-layer="layer1"
     showgrid="false"
     inkscape:window-width="1822"
     inkscape:window-height="1051"
     inkscape:window-x="89"
     inkscape:window-y="-9"
     inkscape:window-maximized="1" />
  <metadata
     id="metadata841">
    <rdf:RDF>
      <cc:Work
         rdf:about="">
        <dc:format>image/svg+xml</dc:format>
        <dc:type
           rdf:resource="http://purl.org/dc/dcmitype/StillImage" />
        <dc:title />
      </cc:Work>
    </rdf:RDF>
  </metadata>
  <rect
     style="fill:#f9f9f9;fill-opacity:0;fill-rule:evenodd;stroke-width:0.31529424"
     id="rect1395"
     width="385.9812"
     height="37.04166"
     x="-0.53128397"
     y="-37.041656"
     transform="scale(1,-1)" />
  <g
     inkscape:label="Layer 1"
     inkscape:groupmode="layer"
     id="layer1"
     transform="translate(45.491503,-135.98214)">
    <path
       inkscape:connector-curvature="0"
       style="fill:#184561;fill-opacity:1;stroke-width:0.185546"
       id="path827"
       d="m -45.491503,173.0238 v -37.04166 h 10.70695 c 10.70697,0 32.1208,0 53.53465,0 21.41383,0 42.828,0 64.2416,0 21.414013,0 42.827853,0 64.241733,0 21.41387,0 42.82776,0 64.24164,0 21.41389,0 42.82776,0 64.24164,0 21.41388,0 42.82778,0 53.53471,0 h 10.70695 v 0 l -10.70695,4.79741 c -10.70693,4.84885 -32.12083,14.3665 -53.53471,16.46296 -21.41388,2.01928 -42.82775,-3.38263 -64.24164,-4.11574 -21.41388,-0.68167 -42.82777,3.43407 -64.24164,7.54982 -21.41388,4.11573 -42.82772,8.23147 -64.241733,5.49193 -21.4136,-2.79098 -42.82777,-12.30864 -64.2416,-12.34722 -21.41385,0.0386 -42.82768,9.55624 -53.53465,14.4051 z" />
  </g>
</svg>
