<?xml version="1.0" encoding="UTF-8" standalone="no"?>
<svg
   xmlns:dc="http://purl.org/dc/elements/1.1/"
   xmlns:cc="http://creativecommons.org/ns#"
   xmlns:rdf="http://www.w3.org/1999/02/22-rdf-syntax-ns#"
   xmlns:svg="http://www.w3.org/2000/svg"
   xmlns="http://www.w3.org/2000/svg"
   xmlns:sodipodi="http://sodipodi.sourceforge.net/DTD/sodipodi-0.dtd"
   xmlns:inkscape="http://www.inkscape.org/namespaces/inkscape"
   id="svg2"
   height="130.46666mm"
   width="48.844788mm"
   version="1.1"
   sodipodi:docname="escu.svg"
   inkscape:version="0.92.4 (5da689c313, 2019-01-14)">
  <sodipodi:namedview
     pagecolor="#ffffff"
     bordercolor="#666666"
     borderopacity="1"
     objecttolerance="10"
     gridtolerance="10"
     guidetolerance="10"
     inkscape:pageopacity="0"
     inkscape:pageshadow="2"
     inkscape:window-width="1822"
     inkscape:window-height="1051"
     id="namedview1466"
     showgrid="false"
     inkscape:zoom="0.5946522"
     inkscape:cx="-519.36875"
     inkscape:cy="549.75621"
     inkscape:window-x="89"
     inkscape:window-y="-9"
     inkscape:window-maximized="1"
     inkscape:current-layer="layer1" />
  <defs
     id="defs4">
    <filter
       id="filter3737">
      <feGaussianBlur
         id="feGaussianBlur3739"
         stdDeviation="3.8997738" />
    </filter>
  </defs>
  <g
     id="layer1"
     transform="translate(-903.25133,-543.99383)">
    <path
       id="path2890-1"
       d="m 365.66027,112.01273 c -23.503,0 -42.573,19.421 -42.573,43.359 0,17.138 9.7823,31.94 23.955,38.973 v 17.004 c 0,16.057 -0.40044,21.215 -1.6549,21.224 -0.9102,0.007 -9.4,0.89033 -18.866,1.9859 -34.425,3.9842 -67.38,10.755 -80.967,16.632 -3.534,1.5287 -13.86,4.2075 -22.962,5.9577 -20.047,3.855 -30.356,8.675 -41.001,19.156 -16.991,16.73 -25.996,36.176 -28.299,61.232 l -0.57922,6.3301 6.1232,-0.82746 c 3.3729,-0.45603 12.87,-2.5723 21.1,-4.7165 28.75,-7.4904 51.927,-20.316 61.356,-33.967 2.5768,-3.7308 12.347,-7.2478 30.368,-10.922 15.502,-3.1611 46.125,-7.2927 64.128,-8.647 l 11.915,-0.9102 -0.33098,42.076 -0.28961,42.035 -9.6399,5.5026 c -42.469,24.23 -59.246,45.431 -59.246,74.844 0,26.929 14.366,48.31 46.71,69.383 8.5997,5.6027 17.089,10.858 18.866,11.667 2.0716,0.9439 3.255,2.606 3.2685,4.5924 0.0119,1.7035 0.0282,20.488 0.0413,41.787 l 0.0413,38.725 -5.0061,0.91021 c -19.143,3.3481 -36.608,17.06 -45.138,35.457 -4.1041,8.8509 -5.5462,29.026 -2.9375,40.877 2.3299,10.584 9.5102,25.021 18.659,37.36 7.8566,10.596 30.763,34.34 33.098,34.34 0.75122,0 1.2412,19.063 1.2412,48.2 v 48.2 l -5.2544,8.6056 c -6.5161,10.726 -10.091,21.258 -8.4815,24.865 1.1315,2.5358 1.3786,2.4833 7.4472,-1.3653 3.456,-2.1917 6.2971,-3.5503 6.3301,-3.0202 0.033,0.53009 0.023,10.335 -0.0413,21.804 l -0.12405,20.852 c -0.16736,28.13 7.1933,56.268 13.281,83.94602 3.3058,9.6793 13.15,9.8238 16.011,0 5.7738,-27.98802 10.477,-55.86302 10.509,-83.94602 l 0.0413,-36.781 v -36.822 l 12.536,-12.867 c 41.379,-42.47 41.283,-65.858 -0.41373,-98.22 l -11.957,-9.2676 -0.0828,-36.077 c -0.05,-19.843 -0.49878,-36.839 0,-37.07 1.9013,-0.88047 3.3938,-1.4774 6.2887,-2.441 17.621,-5.8657 40.117,-15.866 49.606,-26.189 7.8778,-8.5706 14.997,-24.646 16.673,-37.608 3.8129,-29.483 -6.7467,-54.324 -32.271,-75.754 -5.0972,-4.2796 -13.42,-11.719 -18.452,-16.549 -5.0327,-4.8302 -12.053,-10.429 -15.598,-12.453 l -6.4128,-3.6822 -0.28961,-39.718 -0.28961,-39.718 19.197,-7.654 c 54.873,-21.875 75.271,-37.509 84.773,-64.997 9.8436,-28.475 -0.72511,-63.298 -25.486,-83.987 -9.4789,-7.9204 -28.363,-17.277 -41.414,-20.521 -5.0972,-1.2669 -15.469,-2.5104 -23.003,-2.772 l -13.694,-0.49648 0.20686,-19.859 0.12405,-17.128 c 12.781,-7.4781 21.39,-21.477 21.39,-37.567 l -0.33098,-5.544 c -2.74,-21.644 -20.81,-37.837 -42.21,-37.837 h 1.3e-4 z m -161.44,165 c 1.1208,0.0189 1.4212,0.68047 1.8618,2.0686 0.46827,1.4744 0.46666,4.7114 0,7.1989 -0.65672,3.5006 -1.9489,5.1141 -5.7922,7.0748 -6.7025,3.4194 -14.77,4.9139 -14.77,2.7306 0,-3.6745 3.1622,-11.974 5.3371,-13.943 1.2757,-1.1545 5.0465,-2.934 8.3574,-3.9304 2.1376,-0.64333 3.5267,-1.0491 4.4683,-1.1584 0.19617,-0.0228 0.37775,-0.0441 0.53785,-0.0413 v -6e-5 z m 182.54,6.3714 10.261,1.0757 c 20.077,2.0984 35.062,8.6483 39.511,17.253 1.1923,2.3056 2.2684,7.3042 2.3583,11.129 0.15075,6.4146 -0.28106,7.3588 -5.1303,12.329 -2.8917,2.964 -10.012,8.1138 -15.846,11.419 -5.8336,3.3051 -15.237,8.0164 -20.893,10.467 l -10.261,4.4683 z m -40.09,147.29 c 0.25676,1.1e-4 0.40544,0.13474 0.41373,0.41373 0.0228,0.76523 0.06,9.4979 0.0827,19.404 0.0228,9.9061 -0.2216,18.219 -0.49647,18.494 -0.8899,0.88991 -9.886,-9.2491 -12.081,-13.612 -2.8199,-5.6048 -2.6874,-9.0966 0.53785,-14.315 2.5552,-4.1344 9.7457,-10.385 11.543,-10.385 z m 40.918,121.6 5.7095,5.9164 c 8.0604,8.2735 11.806,17.075 12.205,28.837 0.29012,8.5609 -0.0344,9.9252 -2.9375,13.033 -1.7836,1.9091 -4.7165,4.1994 -6.537,5.1303 -1.8204,0.93081 -4.6403,2.1111 -6.2473,2.6065 l -2.9375,0.91021 -0.37236,-24.369 c -0.21342,-13.398 -0.0391,-26.102 0.37236,-28.216 l 0.74472,-3.8477 z m -41.083,117.91 -0.33099,32.395 c -5.4331,-4.9444 -8.0927,-10.892 -10.881,-19.363 -0.34529,-3.8302 -2.7126,-10.709 11.212,-13.033 z m 44.807,116.67 c 5.4209,2.7145 5.494,5.3497 5.8336,9.0607 -1.4398,4.9599 -2.8628,7.0344 -5.6681,9.9295 l -0.16549,-18.99 z"
       inkscape:connector-curvature="0"
       style="fill:#808080;fill-opacity:0.38805973;stroke:none;filter:url(#filter3737)" />
    <path
       id="path2890"
       d="m 1018.5351,544.00273 c -12.7239,0 -23.04787,10.51399 -23.04787,23.47338 0,9.27804 5.29587,17.29144 12.96857,21.09892 v 9.2055 c 0,8.69282 -0.2168,11.48522 -0.8959,11.49009 -0.4927,0.004 -5.0889,0.482 -10.21354,1.07511 -18.63673,2.15694 -36.47767,5.82247 -43.83332,9.00412 -1.91321,0.8276 -7.50343,2.27782 -12.431,3.22534 -10.85291,2.08698 -16.43391,4.6964 -22.19683,10.37053 -9.19846,9.05716 -14.07352,19.5847 -15.32031,33.14933 l -0.31357,3.42695 3.31493,-0.44797 c 1.826,-0.24688 6.96747,-1.39257 11.42297,-2.55338 15.56446,-4.0551 28.11186,-10.99853 33.21646,-18.38881 1.39501,-2.01975 6.68432,-3.92376 16.4404,-5.91287 8.39239,-1.71133 24.97084,-3.94807 34.71721,-4.68125 l 6.4504,-0.49276 -0.1792,22.7788 -0.1568,22.7566 -5.2187,2.97896 c -22.99158,13.11746 -32.07423,24.59511 -32.07423,40.51851 0,14.57862 7.77736,26.15371 25.28751,37.56206 4.65562,3.03315 9.25152,5.87823 10.21352,6.31619 1.1215,0.51101 1.7622,1.41083 1.7695,2.48621 0.01,0.92223 0.016,11.09164 0.022,22.62234 l 0.022,20.96466 -2.7102,0.49276 c -10.36348,1.81257 -19.81857,9.23582 -24.43651,19.19545 -2.22186,4.79164 -3.00252,15.71389 -1.59025,22.12969 1.26131,5.7299 5.14854,13.54569 10.10146,20.22569 4.25336,5.73639 16.6542,18.59074 17.9183,18.59074 0.4068,0 0.672,10.32019 0.672,26.09417 v 26.09416 l -2.8446,4.65885 c -3.5276,5.80676 -5.463,11.50849 -4.5917,13.46123 0.6126,1.37281 0.7464,1.34439 4.0318,-0.73914 1.8709,-1.18652 3.409,-1.92204 3.4269,-1.63505 0.018,0.28697 0.012,5.59508 -0.022,11.80409 l -0.067,11.2887 c -0.091,15.22877 3.8942,30.46197 7.19,45.44607 1.7896,5.2401 7.119,5.3184 8.6678,0 3.1259,-15.152 5.672,-30.2427 5.6894,-45.44607 l 0.022,-19.91223 v -19.93442 l 6.7867,-6.96585 c 22.4014,-22.9921 22.3494,-35.65372 -0.224,-53.17363 l -6.4732,-5.01723 -0.045,-19.5311 c -0.027,-10.74246 -0.2701,-19.94363 0,-20.06869 1.0293,-0.47666 1.8373,-0.79982 3.4045,-1.32149 9.5395,-3.17553 21.7183,-8.58942 26.8553,-14.17801 4.2649,-4.63989 8.119,-13.34268 9.0263,-20.35995 2.0642,-15.96129 -3.6524,-29.40953 -17.4706,-41.01115 -2.7595,-2.31686 -7.2652,-6.34434 -9.9894,-8.95918 -2.7246,-2.61494 -6.5252,-5.64597 -8.4443,-6.74171 l -3.4718,-1.99344 -0.1568,-21.50225 -0.1567,-21.50224 10.3926,-4.14366 c 29.7068,-11.84253 40.7497,-20.30636 45.8938,-35.18761 5.3291,-15.41559 -0.3925,-34.26781 -13.7974,-45.46828 -5.1316,-4.28788 -15.3549,-9.35329 -22.4204,-11.1095 -2.7595,-0.68587 -8.3745,-1.35907 -12.4532,-1.50069 l -7.4136,-0.26878 0.112,-10.75112 0.067,-9.27263 c 6.9193,-4.04844 11.5799,-11.62706 11.5799,-20.33775 l -0.1791,-3.00137 c -1.478,-11.7164 -11.2552,-20.48284 -22.846,-20.48284 h 10e-5 z m -87.3938,89.3265 c 0.60677,0.0103 0.76939,0.36839 1.00792,1.11988 0.25351,0.7982 0.25264,2.55063 0,3.89729 -0.35553,1.89513 -1.05508,2.76863 -3.13574,3.8301 -3.62855,1.85117 -7.99607,2.66025 -7.99607,1.47827 0,-1.98927 1.71193,-6.48239 2.88936,-7.54835 0.69063,-0.62502 2.73204,-1.58839 4.52446,-2.12782 1.15724,-0.34828 1.90927,-0.56795 2.41902,-0.62712 0.10621,-0.0123 0.2045,-0.0239 0.29118,-0.0224 v -3e-5 z m 98.8222,3.4493 5.555,0.58236 c 10.8692,1.13601 18.9816,4.68195 21.3902,9.3403 0.6455,1.24819 1.2281,3.9543 1.2767,6.02493 0.082,3.4727 -0.1521,3.98386 -2.7774,6.67459 -1.5654,1.60463 -5.4202,4.39259 -8.5786,6.18193 -3.1581,1.7893 -8.2489,4.33987 -11.3109,5.66656 l -5.555,2.41901 z m -21.7037,79.73879 c 0.1391,6e-5 0.2196,0.073 0.2241,0.22398 0.013,0.41428 0.032,5.14191 0.045,10.5048 0.012,5.3629 -0.12,9.86327 -0.2688,10.01215 -0.4818,0.48177 -5.3521,-5.00722 -6.5404,-7.36917 -1.5266,-3.03428 -1.4549,-4.92465 0.2912,-7.74975 1.3834,-2.23825 5.2761,-5.62215 6.2491,-5.62215 z m 22.152,65.83093 3.091,3.20297 c 4.3636,4.47905 6.3914,9.24395 6.6074,15.61157 0.157,4.63464 -0.018,5.37324 -1.5903,7.05571 -0.9656,1.03354 -2.5534,2.27344 -3.539,2.7774 -0.9855,0.50392 -2.5121,1.1429 -3.3821,1.41109 l -1.5903,0.49277 -0.2016,-13.19271 c -0.1155,-7.25332 -0.021,-14.13092 0.2016,-15.27538 l 0.4032,-2.08304 z m -22.2412,63.83326 -0.1793,17.53777 c -2.9412,-2.67676 -4.3811,-5.89663 -5.8906,-10.48261 -0.1869,-2.07356 -1.4685,-5.79755 6.0699,-7.0557 z m 24.2572,63.16195 c 2.9348,1.46956 2.9743,2.89619 3.1582,4.90522 -0.7795,2.68516 -1.5498,3.80824 -3.0686,5.37556 l -0.09,-10.28067 z"
       inkscape:connector-curvature="0"
       style="fill:#808080;fill-opacity:0.18905473;stroke-width:0.54137272" />
  </g>
  <metadata
     id="metadata1463">
    <rdf:RDF>
      <cc:Work>
        <dc:format>image/svg+xml</dc:format>
        <dc:type
           rdf:resource="http://purl.org/dc/dcmitype/StillImage" />
        <cc:license
           rdf:resource="http://creativecommons.org/licenses/publicdomain/" />
        <dc:publisher>
          <cc:Agent
             rdf:about="http://openclipart.org/">
            <dc:title>Openclipart</dc:title>
          </cc:Agent>
        </dc:publisher>
        <dc:title></dc:title>
        <dc:date>2011-02-08T22:35:57</dc:date>
        <dc:description>Second version of the symbol aesculap.</dc:description>
        <dc:source>http://openclipart.org/detail/117505/aesculap-2-by-marauder</dc:source>
        <dc:creator>
          <cc:Agent>
            <dc:title>marauder</dc:title>
          </cc:Agent>
        </dc:creator>
        <dc:subject>
          <rdf:Bag>
            <rdf:li>aesculap</rdf:li>
            <rdf:li>clinic</rdf:li>
            <rdf:li>clip art</rdf:li>
            <rdf:li>clipart</rdf:li>
            <rdf:li>doctor</rdf:li>
            <rdf:li>hospital</rdf:li>
            <rdf:li>medicine</rdf:li>
            <rdf:li>snake</rdf:li>
            <rdf:li>viper</rdf:li>
          </rdf:Bag>
        </dc:subject>
      </cc:Work>
      <cc:License
         rdf:about="http://creativecommons.org/licenses/publicdomain/">
        <cc:permits
           rdf:resource="http://creativecommons.org/ns#Reproduction" />
        <cc:permits
           rdf:resource="http://creativecommons.org/ns#Distribution" />
        <cc:permits
           rdf:resource="http://creativecommons.org/ns#DerivativeWorks" />
      </cc:License>
    </rdf:RDF>
  </metadata>
</svg>
