<?xml version="1.0" encoding="UTF-8" standalone="no"?>
<!-- Generator: Adobe Illustrator 19.0.0, SVG Export Plug-In . SVG Version: 6.00 Build 0)  -->

<svg
   xmlns:dc="http://purl.org/dc/elements/1.1/"
   xmlns:cc="http://creativecommons.org/ns#"
   xmlns:rdf="http://www.w3.org/1999/02/22-rdf-syntax-ns#"
   xmlns:svg="http://www.w3.org/2000/svg"
   xmlns="http://www.w3.org/2000/svg"
   xmlns:sodipodi="http://sodipodi.sourceforge.net/DTD/sodipodi-0.dtd"
   xmlns:inkscape="http://www.inkscape.org/namespaces/inkscape"
   version="1.1"
   id="Capa_1"
   x="0px"
   y="0px"
   viewBox="0 0 480 480"
   style="enable-background:new 0 0 480 480;"
   xml:space="preserve"
   sodipodi:docname="f_avatar.svg"
   inkscape:version="0.92.4 (5da689c313, 2019-01-14)"><metadata
   id="metadata899"><rdf:RDF><cc:Work
       rdf:about=""><dc:format>image/svg+xml</dc:format><dc:type
         rdf:resource="http://purl.org/dc/dcmitype/StillImage" /></cc:Work></rdf:RDF></metadata><defs
   id="defs897" /><sodipodi:namedview
   pagecolor="#ffffff"
   bordercolor="#666666"
   borderopacity="1"
   objecttolerance="10"
   gridtolerance="10"
   guidetolerance="10"
   inkscape:pageopacity="0"
   inkscape:pageshadow="2"
   inkscape:window-width="1822"
   inkscape:window-height="1051"
   id="namedview895"
   showgrid="false"
   inkscape:zoom="1.2639534"
   inkscape:cx="233.07628"
   inkscape:cy="201.30145"
   inkscape:window-x="89"
   inkscape:window-y="-9"
   inkscape:window-maximized="1"
   inkscape:current-layer="Capa_1" />
<g
   id="g862"
   style="fill:#e9e9e9;fill-opacity:1">
	<g
   id="g860"
   style="fill:#e9e9e9;fill-opacity:1">
		<path
   d="M 386.848,323.52 316.832,309.472 C 309.408,307.968 304,301.376 304,293.792 V 275.52 C 373.92,268.864 384,254.56 384,240 384,196.96 355.392,97.024 350.656,80.768 350.08,55.648 345.472,41.504 333.984,29.152 325.856,20.352 313.92,18.304 304.288,16.672 300.512,16 295.296,15.136 293.376,14.08 276.32,4.832 259.456,0.384 239.328,0 197.184,1.728 145.376,28.544 127.648,77.568 126.368,82.144 96,190.368 96,240 c 0,20.704 23.424,31.616 80,36.608 v 17.184 c 0,7.584 -5.408,14.176 -12.864,15.68 l -69.92,14.016 C 48.48,332.288 16,371.872 16,417.6 V 448 c 0,17.632 14.368,32 32,32 h 384 c 17.632,0 32,-14.368 32,-32 v -30.4 c 0,-45.728 -32.48,-85.312 -77.152,-94.08 z"
   id="path858"
   inkscape:connector-curvature="0"
   style="fill:#e9e9e9;fill-opacity:1" />
	</g>
</g>
<g
   id="g864">
</g>
<g
   id="g866">
</g>
<g
   id="g868">
</g>
<g
   id="g870">
</g>
<g
   id="g872">
</g>
<g
   id="g874">
</g>
<g
   id="g876">
</g>
<g
   id="g878">
</g>
<g
   id="g880">
</g>
<g
   id="g882">
</g>
<g
   id="g884">
</g>
<g
   id="g886">
</g>
<g
   id="g888">
</g>
<g
   id="g890">
</g>
<g
   id="g892">
</g>
</svg>