<?xml version="1.0" encoding="UTF-8" standalone="no"?>
<svg
   xmlns:dc="http://purl.org/dc/elements/1.1/"
   xmlns:cc="http://creativecommons.org/ns#"
   xmlns:rdf="http://www.w3.org/1999/02/22-rdf-syntax-ns#"
   xmlns:svg="http://www.w3.org/2000/svg"
   xmlns="http://www.w3.org/2000/svg"
   xmlns:sodipodi="http://sodipodi.sourceforge.net/DTD/sodipodi-0.dtd"
   xmlns:inkscape="http://www.inkscape.org/namespaces/inkscape"
   height="512px"
   id="Layer_1"
   style="enable-background:new 0 0 512 512;"
   version="1.1"
   viewBox="0 0 512 512"
   width="512px"
   xml:space="preserve"
   sodipodi:docname="location2.svg"
   inkscape:version="0.92.4 (5da689c313, 2019-01-14)"><metadata
     id="metadata835"><rdf:RDF><cc:Work
         rdf:about=""><dc:format>image/svg+xml</dc:format><dc:type
           rdf:resource="http://purl.org/dc/dcmitype/StillImage" /></cc:Work></rdf:RDF></metadata><defs
     id="defs833" /><sodipodi:namedview
     pagecolor="#ffffff"
     bordercolor="#666666"
     borderopacity="1"
     objecttolerance="10"
     gridtolerance="10"
     guidetolerance="10"
     inkscape:pageopacity="0"
     inkscape:pageshadow="2"
     inkscape:window-width="728"
     inkscape:window-height="480"
     id="namedview831"
     showgrid="false"
     inkscape:zoom="0.4609375"
     inkscape:cx="259.25424"
     inkscape:cy="256"
     inkscape:window-x="674"
     inkscape:window-y="415"
     inkscape:window-maximized="0"
     inkscape:current-layer="Layer_1" /><g
     id="g828"
     style="fill:#f5f5f5;fill-opacity:1"><path
       d="m 256,32 c -74,0 -134.2,58.7 -134.2,132.7 0,16.4 3.5,34.3 9.8,50.4 h -0.1 l 0.6,1.2 c 0.5,1.1 1,2.2 1.5,3.3 L 256,480 377.8,220.9 l 0.6,-1.2 c 0.5,-1.1 1.1,-2.2 1.6,-3.4 l 0.4,-1.1 c 6.5,-16.1 9.8,-33.1 9.8,-50.3 C 390.2,90.7 330,32 256,32 Z m 0,174.9 c -25.9,0 -46.9,-21 -46.9,-46.9 0,-25.9 21,-46.9 46.9,-46.9 25.9,0 46.9,21 46.9,46.9 0,25.9 -21,46.9 -46.9,46.9 z"
       id="path826"
       inkscape:connector-curvature="0"
       style="fill:#f5f5f5;fill-opacity:1" /></g></svg>