<?xml version="1.0" encoding="UTF-8" standalone="no"?>
<svg
   xmlns:dc="http://purl.org/dc/elements/1.1/"
   xmlns:cc="http://creativecommons.org/ns#"
   xmlns:rdf="http://www.w3.org/1999/02/22-rdf-syntax-ns#"
   xmlns:svg="http://www.w3.org/2000/svg"
   xmlns="http://www.w3.org/2000/svg"
   xmlns:sodipodi="http://sodipodi.sourceforge.net/DTD/sodipodi-0.dtd"
   xmlns:inkscape="http://www.inkscape.org/namespaces/inkscape"
   height="405.61899"
   version="1.1"
   viewBox="0 0 340.19699 405.61899"
   width="340.19699"
   xml:space="preserve"
   id="svg1456"
   sodipodi:docname="pdf.svg"
   inkscape:version="0.92.4 (5da689c313, 2019-01-14)"><metadata
     id="metadata1462"><rdf:RDF><cc:Work
         rdf:about=""><dc:format>image/svg+xml</dc:format><dc:type
           rdf:resource="http://purl.org/dc/dcmitype/StillImage" /><dc:title></dc:title></cc:Work></rdf:RDF></metadata><defs
     id="defs1460" /><sodipodi:namedview
     pagecolor="#ffffff"
     bordercolor="#666666"
     borderopacity="1"
     objecttolerance="10"
     gridtolerance="10"
     guidetolerance="10"
     inkscape:pageopacity="0"
     inkscape:pageshadow="2"
     inkscape:window-width="1822"
     inkscape:window-height="1051"
     id="namedview1458"
     showgrid="false"
     inkscape:zoom="0.4609375"
     inkscape:cx="172.85824"
     inkscape:cy="202.81"
     inkscape:window-x="89"
     inkscape:window-y="-9"
     inkscape:window-maximized="1"
     inkscape:current-layer="svg1456" /><g
     id="_x32_7_x2C__PDF_x2C__File_type_x2C__Adobe"
     transform="translate(-86.396,-53.191)"><g
       id="g1452"><polygon
         points="426.374,112.496 426.146,112.714 367.811,112.758 367.266,53.289 367.309,53.245 "
         style="fill:#f1f1f1"
         id="polygon1424" /><path
         d="m 208.747,146.766 c 0,11.242 -6.28,16.552 -15.919,16.476 -1.319,0 -2.792,0 -3.696,-0.207 v -30.782 c 0.904,-0.207 2.442,-0.425 4.819,-0.425 9.137,0.001 14.862,5.169 14.796,14.938 z"
         style="fill:#f1f1f1"
         id="path1426"
         inkscape:connector-curvature="0" /><path
         d="m 161.131,138.6 c 0,4.819 -3.49,7.687 -9.137,7.687 -1.538,0 -2.661,-0.076 -3.566,-0.283 v -13.892 c 0.774,-0.207 2.235,-0.414 4.394,-0.414 5.31,0 8.309,2.573 8.309,6.902 z"
         style="fill:#f1f1f1"
         id="path1428"
         inkscape:connector-curvature="0" /><path
         d="M 125.65,94.625 H 308.832 V 200.391 H 125.65 125.203 86.396 V 94.625 h 38.806 z"
         style="fill:#f1f1f1"
         id="path1430"
         inkscape:connector-curvature="0" /><path
         d="m 281.182,254.997 c 0.13,10.98 -6.892,32.405 -6.892,32.405 -2.422,-2.551 -7.263,-16.203 -7.263,-28.83 0,-12.626 4.079,-16.071 7.263,-16.071 3.194,0 6.759,1.527 6.892,12.496 z"
         style="fill:#dc1d00"
         id="path1432"
         inkscape:connector-curvature="0" /><path
         d="m 357.638,350.754 c 0,14.502 -26.278,8.591 -42.438,-6.794 0,0 42.438,-7.698 42.438,6.794 z"
         style="fill:#dc1d00"
         id="path1434"
         inkscape:connector-curvature="0" /><path
         d="m 205.149,398.512 c -13.008,-7.785 27.303,-31.763 34.576,-32.525 0,-0.001 -20.957,40.669 -34.576,32.525 z"
         style="fill:#dc1d00"
         id="path1436"
         inkscape:connector-curvature="0" /><path
         d="m 280.417,311.26 c 7.394,13.772 22.069,29.975 22.069,29.975 0,0 -5.616,0.633 -18.666,3.827 -13.053,3.194 -19.605,6.51 -19.605,6.51 0,0 0,0 5.354,-11.994 5.364,-11.995 10.848,-28.318 10.848,-28.318 z"
         style="fill:#dc1d00"
         id="path1438"
         inkscape:connector-curvature="0" /><path
         d="M 426.593,112.714 V 458.81 H 125.65 V 200.391 H 308.832 V 94.625 H 125.65 V 53.191 h 241.616 l 0.043,0.054 -0.043,0.043 0.545,59.469 58.335,-0.044 0.229,-0.218 z"
         style="fill:#dc1d00"
         id="path1440"
         inkscape:connector-curvature="0" /><path
         d="m 239.725,365.986 c -7.272,0.763 -47.584,24.74 -34.576,32.525 13.619,8.145 34.576,-32.525 34.576,-32.525 z M 315.2,343.96 c 16.159,15.385 42.438,21.296 42.438,6.794 0,-14.492 -42.438,-6.794 -42.438,-6.794 z m -12.714,-2.726 c 0,0 -14.676,-16.202 -22.069,-29.975 0,0 -5.484,16.323 -10.849,28.317 -5.354,11.994 -5.354,11.994 -5.354,11.994 0,0 6.553,-3.315 19.605,-6.51 13.051,-3.193 18.667,-3.826 18.667,-3.826 z M 274.29,287.402 c 0,0 7.021,-21.425 6.892,-32.405 -0.133,-10.969 -3.697,-12.496 -6.892,-12.496 -3.184,0 -7.263,3.445 -7.263,16.071 0,12.627 4.841,26.28 7.263,28.83 z m 8.81,16.585 c 7.143,15.439 26.791,35.328 26.791,35.328 0,0 6.368,-1.657 32.646,-2.289 26.288,-0.633 27.434,14.152 27.553,15.428 0.131,1.287 1.157,13.02 -19.768,13.782 -20.913,0.764 -42.611,-21.044 -42.611,-21.044 0,0 -8.92,1.406 -16.313,3.185 -7.393,1.787 -31.13,8.297 -31.13,8.297 0,0 -7.022,12.757 -22.582,33.158 -15.57,20.412 -33.005,18.886 -37.978,12.124 -5.779,-7.85 -1.319,-15.688 9.65,-25.896 10.969,-10.205 36.277,-18.667 36.277,-18.667 0,0 5.103,-9.181 12.583,-26.703 7.479,-17.522 13.139,-35.121 13.139,-35.121 0,0 -7.404,-16.813 -8.844,-31.119 -1.613,-15.952 0.175,-26.67 12.42,-26.801 12.246,-0.131 16.072,9.061 16.454,25.001 0.381,15.954 -8.287,41.337 -8.287,41.337 z"
         style="fill:#ffffff"
         id="path1442"
         inkscape:connector-curvature="0" /><g
         id="g1450"><polygon
           points="237,171 237,152 254,152 254,144 237,144 237,133 255,133 255,124 227,124 227,171 "
           style="fill:#a51600"
           id="polygon1444" /><path
           d="m 212.094,128.688 c -4.536,-3.424 -10.548,-5.027 -19.489,-5.027 -5.375,0 -10.605,0.349 -14.605,0.981 v 46.21 c 3,0.349 6.787,0.697 12.304,0.697 9.214,0 16.871,-1.952 21.821,-6.073 4.536,-3.838 7.874,-10.054 7.874,-19.06 0,-8.296 -3.009,-14.097 -7.905,-17.728 z m -19.832,34.554 c -1.319,0 -2.262,0 -4.262,-0.207 v -30.782 c 2,-0.207 3.008,-0.425 5.386,-0.425 9.137,0 14.861,5.168 14.795,14.938 0,11.242 -6.281,16.552 -15.919,16.476 z"
           style="fill:#a51600"
           id="path1446"
           inkscape:connector-curvature="0" /><path
           d="m 166.648,127.434 c -3.14,-2.519 -8.259,-3.772 -14.824,-3.772 -6.488,0 -11.824,0.425 -14.824,0.981 V 171 h 11 v -16.765 c 1,0.142 2.449,0.218 3.846,0.218 6.28,0 11.762,-1.538 15.394,-4.961 2.791,-2.649 4.381,-6.564 4.381,-11.165 0,-4.612 -1.975,-8.516 -4.973,-10.893 z m -14.869,18.853 c -1.537,0 -2.779,-0.076 -3.779,-0.283 v -13.892 c 1,-0.207 2.449,-0.414 4.607,-0.414 5.311,0 8.309,2.573 8.309,6.902 0,4.819 -3.489,7.687 -9.137,7.687 z"
           style="fill:#a51600"
           id="path1448"
           inkscape:connector-curvature="0" /></g></g></g><g
     id="Layer_1"
     transform="translate(-86.396,-53.191)" /></svg>