<?xml version="1.0" encoding="UTF-8" standalone="no"?>
<svg
   xmlns:dc="http://purl.org/dc/elements/1.1/"
   xmlns:cc="http://creativecommons.org/ns#"
   xmlns:rdf="http://www.w3.org/1999/02/22-rdf-syntax-ns#"
   xmlns:svg="http://www.w3.org/2000/svg"
   xmlns="http://www.w3.org/2000/svg"
   xmlns:sodipodi="http://sodipodi.sourceforge.net/DTD/sodipodi-0.dtd"
   xmlns:inkscape="http://www.inkscape.org/namespaces/inkscape"
   width="24"
   height="24"
   viewBox="0 0 24 24"
   version="1.1"
   id="svg847"
   sodipodi:docname="tick_blue.svg"
   inkscape:version="0.92.4 (5da689c313, 2019-01-14)">
  <metadata
     id="metadata853">
    <rdf:RDF>
      <cc:Work
         rdf:about="">
        <dc:format>image/svg+xml</dc:format>
        <dc:type
           rdf:resource="http://purl.org/dc/dcmitype/StillImage" />
        <dc:title></dc:title>
      </cc:Work>
    </rdf:RDF>
  </metadata>
  <defs
     id="defs851" />
  <sodipodi:namedview
     pagecolor="#ffffff"
     bordercolor="#666666"
     borderopacity="1"
     objecttolerance="10"
     gridtolerance="10"
     guidetolerance="10"
     inkscape:pageopacity="0"
     inkscape:pageshadow="2"
     inkscape:window-width="1018"
     inkscape:window-height="679"
     id="namedview849"
     showgrid="false"
     inkscape:zoom="9.8333333"
     inkscape:cx="12.152542"
     inkscape:cy="12"
     inkscape:window-x="2628"
     inkscape:window-y="243"
     inkscape:window-maximized="0"
     inkscape:current-layer="svg847" />
  <path
     d="M5.48 10.089l1.583-1.464c1.854.896 3.028 1.578 5.11 3.063 3.916-4.442 6.503-6.696 11.311-9.688l.516 1.186c-3.965 3.46-6.87 7.314-11.051 14.814-2.579-3.038-4.301-4.974-7.469-7.911zm14.407.557c.067.443.113.893.113 1.354 0 4.962-4.038 9-9 9s-9-4.038-9-9 4.038-9 9-9c1.971 0 3.79.644 5.274 1.723.521-.446 1.052-.881 1.6-1.303-1.884-1.511-4.271-2.42-6.874-2.42-6.075 0-11 4.925-11 11s4.925 11 11 11 11-4.925 11-11c0-1.179-.19-2.313-.534-3.378-.528.633-1.052 1.305-1.579 2.024z"
     id="path845"
     style="fill:#184561;fill-opacity:1" />
</svg>
